<svg xmlns="http://www.w3.org/2000/svg" xmlns:xlink="http://www.w3.org/1999/xlink" viewBox="0 0 27.83 41.82"><defs><linearGradient id="linear-gradient" x1="16.11" y1="-0.09" x2="16.11" y2="29.13" gradientUnits="userSpaceOnUse"><stop offset="0" stop-color="#878787"/><stop offset="1"/></linearGradient><linearGradient id="linear-gradient-2" x1="18.17" y1="-0.09" x2="18.17" y2="29.13" xlink:href="#linear-gradient"/><linearGradient id="linear-gradient-3" x1="20.13" y1="-0.09" x2="20.13" y2="29.13" xlink:href="#linear-gradient"/><linearGradient id="linear-gradient-4" x1="22.23" y1="-0.09" x2="22.23" y2="29.13" xlink:href="#linear-gradient"/><linearGradient id="linear-gradient-5" x1="22.21" y1="-0.09" x2="22.21" y2="29.13" xlink:href="#linear-gradient"/><linearGradient id="linear-gradient-6" x1="20.13" y1="-0.09" x2="20.13" y2="29.13" xlink:href="#linear-gradient"/><linearGradient id="linear-gradient-7" x1="18.17" y1="-0.09" x2="18.17" y2="29.13" xlink:href="#linear-gradient"/><linearGradient id="linear-gradient-8" x1="16.13" y1="-0.09" x2="16.13" y2="29.13" xlink:href="#linear-gradient"/><linearGradient id="linear-gradient-9" x1="15.39" y1="-0.09" x2="15.39" y2="29.13" xlink:href="#linear-gradient"/><linearGradient id="linear-gradient-11" x1="22.78" y1="-0.09" x2="22.78" y2="29.13" xlink:href="#linear-gradient"/><linearGradient id="linear-gradient-12" x1="22.92" y1="-0.09" x2="22.92" y2="29.14" xlink:href="#linear-gradient"/><linearGradient id="linear-gradient-13" x1="22.92" y1="-0.08" x2="22.92" y2="29.13" xlink:href="#linear-gradient"/><linearGradient id="linear-gradient-16" x1="22.78" y1="-0.08" x2="22.78" y2="29.13" xlink:href="#linear-gradient"/><linearGradient id="linear-gradient-21" x1="12.62" y1="29.22" x2="12.62" y2="-0.04" gradientUnits="userSpaceOnUse"><stop offset="0" stop-color="#c6b63f"/><stop offset="1" stop-color="#ffde00"/></linearGradient><linearGradient id="linear-gradient-22" x1="10.56" y1="29.22" x2="10.56" y2="-0.04" xlink:href="#linear-gradient-21"/><linearGradient id="linear-gradient-23" x1="8.59" y1="29.22" x2="8.59" y2="-0.04" xlink:href="#linear-gradient-21"/><linearGradient id="linear-gradient-24" x1="6.5" y1="29.22" x2="6.5" y2="-0.04" xlink:href="#linear-gradient-21"/><linearGradient id="linear-gradient-25" x1="6.51" y1="29.22" x2="6.51" y2="-0.04" xlink:href="#linear-gradient-21"/><linearGradient id="linear-gradient-26" x1="8.6" y1="29.22" x2="8.6" y2="-0.04" xlink:href="#linear-gradient-21"/><linearGradient id="linear-gradient-27" x1="10.56" y1="29.22" x2="10.56" y2="-0.04" xlink:href="#linear-gradient-21"/><linearGradient id="linear-gradient-28" x1="12.6" y1="29.22" x2="12.6" y2="-0.04" xlink:href="#linear-gradient-21"/><linearGradient id="linear-gradient-31" x1="5.95" y1="29.22" x2="5.95" y2="-0.04" xlink:href="#linear-gradient-21"/><linearGradient id="linear-gradient-32" x1="5.08" y1="29.22" x2="5.08" y2="-0.04" xlink:href="#linear-gradient-21"/><linearGradient id="linear-gradient-33" x1="5.08" y1="29.22" x2="5.08" y2="-0.04" xlink:href="#linear-gradient-21"/><linearGradient id="linear-gradient-36" x1="5.95" y1="29.22" x2="5.95" y2="-0.04" xlink:href="#linear-gradient-21"/></defs><title>Ресурс 1</title><g id="Слой_2" data-name="Слой 2"><g id="Слой_1-2" data-name="Слой 1"><path d="M14.9,0c0,3.49,0,7,0,10.47.8-3,1.64-6,2.43-9.07C16.54.92,15.71.47,14.9,0Z" transform="translate(-0.73)" style="fill-rule:evenodd;fill:url(#linear-gradient)"/><path d="M18.32,2c-.79,2.91-1.6,5.87-2.35,8.78,1.44-2.56,2.93-5.07,4.38-7.62C19.68,2.75,19,2.35,18.32,2Z" transform="translate(-0.73)" style="fill-rule:evenodd;fill:url(#linear-gradient-2)"/><path d="M16.92,11.3c2.13-2.16,4.3-4.28,6.42-6.45l-2-1.17C19.86,6.23,18.33,8.77,16.92,11.3Z" transform="translate(-0.73)" style="fill-rule:evenodd;fill:url(#linear-gradient-3)"/><path d="M17.69,12.07c3-1.76,6.05-3.49,9.07-5.25-.8-.47-1.62-.92-2.42-1.4C22.12,7.62,19.87,9.87,17.69,12.07Z" transform="translate(-0.73)" style="fill-rule:evenodd;fill:url(#linear-gradient-4)"/><path d="M24.35,23.8c.79-.49,1.63-.92,2.42-1.42-3-1.74-6.08-3.53-9.1-5.24C19.9,19.36,22.1,21.61,24.35,23.8Z" transform="translate(-0.73)" style="fill-rule:evenodd;fill:url(#linear-gradient-5)"/><path d="M21.31,25.55c.67-.4,1.35-.79,2-1.17C21.22,22.21,19,20,16.91,17.94,18.38,20.47,19.83,23,21.31,25.55Z" transform="translate(-0.73)" style="fill-rule:evenodd;fill:url(#linear-gradient-6)"/><path d="M18.31,27.26c.7-.38,1.36-.79,2.06-1.17Q18.18,22.27,16,18.47C16.74,21.41,17.54,24.32,18.31,27.26Z" transform="translate(-0.73)" style="fill-rule:evenodd;fill:url(#linear-gradient-7)"/><path d="M14.9,29.21c.41-.2,1.23-.69,1.23-.69s.84-.46,1.22-.73c-.83-3-1.61-6.06-2.45-9.05Z" transform="translate(-0.73)" style="fill-rule:evenodd;fill:url(#linear-gradient-8)"/><polygon points="16.61 1.4 14.18 10.47 14.18 0 16.61 1.4" style="fill-rule:evenodd;fill:url(#linear-gradient-9)"/><path d="M20.35,3.13C18.91,5.69,17.42,8.2,16,10.76c.74-2.91,1.56-5.87,2.35-8.78C19,2.35,19.68,2.75,20.35,3.13Z" transform="translate(-0.73)" style="fill-rule:evenodd;fill:url(#linear-gradient-2)"/><path d="M27.33,7.75v2.82L18.22,13Q22.76,10.37,27.33,7.75Z" transform="translate(-0.73)" style="fill-rule:evenodd;fill:url(#linear-gradient-11)"/><path d="M27.33,11.7v2.36c-2.91,0-5.93,0-8.84,0C21.45,13.28,24.38,12.48,27.33,11.7Z" transform="translate(-0.73)" style="fill-rule:evenodd;fill:url(#linear-gradient-12)"/><path d="M27.33,15.15v2.37c-2.95-.79-5.9-1.57-8.84-2.37Z" transform="translate(-0.73)" style="fill-rule:evenodd;fill:url(#linear-gradient-13)"/><path d="M16,18.47q2.22,3.8,4.41,7.62c-.7.38-1.36.79-2.06,1.17C17.54,24.32,16.74,21.41,16,18.47Z" transform="translate(-0.73)" style="fill-rule:evenodd;fill:url(#linear-gradient-7)"/><polygon points="14.18 18.74 16.62 27.79 14.18 29.21 14.18 18.74" style="fill-rule:evenodd;fill:url(#linear-gradient-8)"/><path d="M27.33,21.47c-3-1.75-6.13-3.51-9.11-5.28,3,.83,6.07,1.63,9.11,2.45Z" transform="translate(-0.73)" style="fill-rule:evenodd;fill:url(#linear-gradient-16)"/><path d="M21.3,3.68l2,1.17C21.23,7,19.05,9.14,16.92,11.3,18.33,8.77,19.86,6.23,21.3,3.68Z" transform="translate(-0.73)" style="fill-rule:evenodd;fill:url(#linear-gradient-3)"/><path d="M24.35,5.42c.79.48,1.62.93,2.42,1.4-3,1.76-6.06,3.49-9.07,5.25C19.87,9.87,22.12,7.62,24.35,5.42Z" transform="translate(-0.73)" style="fill-rule:evenodd;fill:url(#linear-gradient-4)"/><path d="M17.67,17.15c3,1.71,6.07,3.5,9.1,5.24-.78.49-1.63.93-2.42,1.42C22.1,21.61,19.9,19.36,17.67,17.15Z" transform="translate(-0.73)" style="fill-rule:evenodd;fill:url(#linear-gradient-5)"/><path d="M16.91,17.94c2.13,2.1,4.31,4.28,6.44,6.44-.68.39-1.36.77-2,1.17C19.83,23,18.38,20.47,16.91,17.94Z" transform="translate(-0.73)" style="fill-rule:evenodd;fill:url(#linear-gradient-6)"/><path d="M11.39,1.4c.79,3,1.63,6,2.43,9.07,0-3.47,0-7,0-10.47C13,.47,12.19.92,11.39,1.4Z" transform="translate(-0.73)" style="fill-rule:evenodd;fill:url(#linear-gradient-21)"/><path d="M8.37,3.13c1.44,2.56,2.93,5.07,4.38,7.62C12,7.85,11.19,4.89,10.4,2,9.71,2.35,9.05,2.75,8.37,3.13Z" transform="translate(-0.73)" style="fill-rule:evenodd;fill:url(#linear-gradient-22)"/><path d="M7.43,3.68l-2,1.17C7.5,7,9.68,9.14,11.81,11.3,10.39,8.77,8.87,6.23,7.43,3.68Z" transform="translate(-0.73)" style="fill-rule:evenodd;fill:url(#linear-gradient-23)"/><path d="M4.38,5.42c-.79.48-1.62.93-2.42,1.4C5,8.58,8,10.31,11,12.07,8.86,9.87,6.61,7.62,4.38,5.42Z" transform="translate(-0.73)" style="fill-rule:evenodd;fill:url(#linear-gradient-24)"/><path d="M11.06,17.15C8,18.86,5,20.65,2,22.39c.78.49,1.63.93,2.42,1.42C6.63,21.61,8.82,19.36,11.06,17.15Z" transform="translate(-0.73)" style="fill-rule:evenodd;fill:url(#linear-gradient-25)"/><path d="M11.82,17.94C9.68,20,7.51,22.21,5.38,24.37c.68.39,1.36.77,2,1.17C8.89,23,10.34,20.47,11.82,17.94Z" transform="translate(-0.73)" style="fill-rule:evenodd;fill:url(#linear-gradient-26)"/><path d="M12.76,18.47q-2.22,3.8-4.41,7.62c.7.38,1.36.79,2.06,1.17C11.19,24.32,12,21.41,12.76,18.47Z" transform="translate(-0.73)" style="fill-rule:evenodd;fill:url(#linear-gradient-27)"/><path d="M13.82,18.74c-.84,3-1.62,6.05-2.45,9.05.38.27.8.49,1.22.73s.82.49,1.23.69Z" transform="translate(-0.73)" style="fill-rule:evenodd;fill:url(#linear-gradient-28)"/><path d="M11.39,1.4c.79,3,1.63,6,2.43,9.07,0-3.47,0-7,0-10.47C13,.47,12.19.92,11.39,1.4Z" transform="translate(-0.73)" style="fill-rule:evenodd;fill:url(#linear-gradient-21)"/><polygon points="7.64 3.13 12.02 10.76 9.67 1.97 7.64 3.13" style="fill-rule:evenodd;fill:url(#linear-gradient-22)"/><path d="M1.39,7.75v2.82L10.5,13Q6,10.37,1.39,7.75Z" transform="translate(-0.73)" style="fill-rule:evenodd;fill:url(#linear-gradient-31)"/><polygon points="0.66 11.7 0.66 14.06 9.5 14.06 0.66 11.7" style="fill-rule:evenodd;fill:url(#linear-gradient-32)"/><polygon points="0.66 15.15 0.66 17.52 9.5 15.15 0.66 15.15" style="fill-rule:evenodd;fill:url(#linear-gradient-33)"/><path d="M12.76,18.47q-2.22,3.8-4.41,7.62c.7.38,1.36.79,2.06,1.17C11.19,24.32,12,21.41,12.76,18.47Z" transform="translate(-0.73)" style="fill-rule:evenodd;fill:url(#linear-gradient-27)"/><polygon points="13.09 18.74 10.65 27.79 13.09 29.21 13.09 18.74" style="fill-rule:evenodd;fill:url(#linear-gradient-28)"/><path d="M1.39,21.47c3-1.75,6.13-3.51,9.11-5.28-3,.83-6.07,1.63-9.11,2.45Z" transform="translate(-0.73)" style="fill-rule:evenodd;fill:url(#linear-gradient-36)"/><path d="M7.43,3.68l-2,1.17C7.5,7,9.68,9.14,11.81,11.3,10.39,8.77,8.87,6.23,7.43,3.68Z" transform="translate(-0.73)" style="fill-rule:evenodd;fill:url(#linear-gradient-23)"/><polygon points="3.65 5.42 1.24 6.82 10.3 12.07 3.65 5.42" style="fill-rule:evenodd;fill:url(#linear-gradient-24)"/><path d="M11.06,17.15C8,18.86,5,20.65,2,22.39c.78.49,1.63.93,2.42,1.42C6.63,21.61,8.82,19.36,11.06,17.15Z" transform="translate(-0.73)" style="fill-rule:evenodd;fill:url(#linear-gradient-25)"/><path d="M11.82,17.94C9.68,20,7.51,22.21,5.38,24.37c.68.39,1.36.77,2,1.17C8.89,23,10.34,20.47,11.82,17.94Z" transform="translate(-0.73)" style="fill-rule:evenodd;fill:url(#linear-gradient-26)"/><path d="M1.56,35.25V38H4.69V35.25h.84v6.47H4.69v-3H1.56v3H.73V35.25Z" transform="translate(-0.73)" style="fill:#878787"/><path d="M7.81,35.25v2.87h.26l2.22-2.87h1l-2.45,3a2.16,2.16,0,0,1,1.81,1.67,17,17,0,0,0,.71,1.83h-.9a11.46,11.46,0,0,1-.59-1.53,1.74,1.74,0,0,0-1.8-1.44H7.81v3H7V35.25Z" transform="translate(-0.73)" style="fill:#878787"/><path d="M14.22,35.33a9.65,9.65,0,0,1,1.6-.12,2.66,2.66,0,0,1,1.81.54,1.74,1.74,0,0,1,.57,1.35,1.9,1.9,0,0,1-.5,1.38,2.68,2.68,0,0,1-2,.71,2.88,2.88,0,0,1-.67-.06v2.59h-.83Zm.83,3.12a2.78,2.78,0,0,0,.69.07c1,0,1.62-.49,1.62-1.38s-.6-1.27-1.53-1.27a3.53,3.53,0,0,0-.79.07Z" transform="translate(-0.73)" style="fill:#878787"/><path d="M19.58,38.07h3a2.22,2.22,0,0,0-2.22-2.24,3.37,3.37,0,0,0-1.38.33l-.2-.64a4.08,4.08,0,0,1,1.63-.37c2,0,3.07,1.47,3.07,3.35a3.07,3.07,0,0,1-3.12,3.33,4.1,4.1,0,0,1-1.69-.34l.18-.66a3.56,3.56,0,0,0,1.39.3,2.29,2.29,0,0,0,2.34-2.38h-3Z" transform="translate(-0.73)" style="fill:#878787"/><path d="M25.73,36h-2v-.71h4.79V36h-2v5.76h-.84Z" transform="translate(-0.73)" style="fill:#878787"/></g></g></svg>